<svg width="92" height="77" viewBox="0 0 92 77" fill="none" xmlns="http://www.w3.org/2000/svg">
<path d="M39.0756 74.5521C36.0724 74.6977 32.9041 74.5807 30.1205 73.8544C27.4217 73.1507 31.5633 72.1536 32.3171 71.9995C35.6815 71.3115 39.1333 70.9554 42.6756 70.7894C45.9911 70.6334 51.0849 70.5513 54.9666 71.3727C51.0459 73.5948 43.7688 74.3263 39.0756 74.5521ZM41.2878 66.2056C37.2947 66.6828 33.1907 67.1031 29.1081 66.978C25.9975 66.8848 29.6476 65.9576 30.6733 65.8109C32.251 65.5851 33.9348 65.5543 35.5493 65.5042C38.068 65.4262 40.6027 65.5049 43.1152 65.3623C44.0678 65.3081 45.3425 65.2505 46.7361 65.229C44.622 65.7114 42.6277 66.0467 41.2878 66.2056ZM47.067 60.2208C44.6903 61.027 41.6494 61.3337 38.9713 61.4763C36.7565 61.5966 30.0052 60.9798 32.8367 58.8112C35.3283 56.9022 41.038 56.3597 44.7861 56.1176C46.9579 55.9757 49.6803 55.9523 52.0042 56.3749C51.0898 57.9649 49.6461 59.3448 47.067 60.2208ZM35.5737 40.3737C35.3949 39.5827 35.2157 38.7918 35.0466 37.9934C34.6446 36.1 34.0479 34.2585 33.4702 32.4795C32.9015 30.7275 32.3131 28.9158 31.9223 27.0766L31.893 26.9421C31.4542 24.9425 31.6099 24.3157 31.7004 24.1363C31.8894 24.4308 32.039 25.234 32.1233 25.6885C32.3367 26.8333 32.539 27.9154 33.4716 28.3239C34.1251 28.6091 34.6398 28.5188 34.957 28.3903C35.906 28.0101 36.1545 26.947 36.4451 25.7171C36.5813 25.1334 36.867 23.9198 37.1647 23.7732C37.1647 23.7743 37.194 23.7709 37.2601 23.7884C37.7087 23.9094 37.6195 25.2567 37.5653 26.061C37.4735 27.452 37.3679 29.0276 38.7996 29.5315C39.2265 29.6811 39.6688 29.6648 40.0464 29.485C40.967 29.0472 41.1777 27.7914 41.4213 26.3376C41.522 25.7334 41.6862 24.7487 41.8774 24.4408C41.9635 24.7375 42.0464 25.2585 42.0979 26.1594L42.1054 26.2741C42.184 27.6878 42.3251 29.0153 43.1596 29.7353C43.7896 30.279 44.4072 30.2311 44.72 30.1538C45.823 29.882 46.3292 28.6213 46.8306 26.5348L46.8479 26.462C47.0622 25.5786 47.2387 25.074 47.3785 24.7917C47.5107 25.1263 47.4961 26.1152 47.4876 26.7223C47.4655 28.1906 47.4473 29.4583 48.2783 30.0083C48.619 30.2329 49.0538 30.3057 49.5024 30.2114C51.0077 29.8954 51.1879 28.3239 51.3472 26.9369C51.439 26.1356 51.5934 24.7929 52.0606 24.7301C52.1134 24.723 52.1413 24.7253 52.144 24.723C52.4257 24.9221 52.4883 26.1479 52.5176 26.739C52.5828 27.9915 52.6378 29.0736 53.5056 29.5704C53.7962 29.7353 54.2887 29.8913 54.9875 29.6911C55.9826 29.4052 56.3775 28.3618 56.7955 27.257C56.9596 26.8189 57.2524 26.0443 57.4929 25.7776C57.5493 25.9655 57.591 26.6057 56.7968 28.5248L56.7427 28.654C56.0244 30.4238 55.1162 32.1401 54.2386 33.8C53.3477 35.4854 52.4244 37.2292 51.6857 39.0514C49.6372 44.0993 49.0356 48.0767 48.6274 54.6318C45.5373 54.4944 40.8663 54.7191 36.9304 55.5398C37.6306 49.4874 36.5875 44.8546 35.5737 40.3737ZM57.228 72.0233C57.4499 72.1083 57.6695 72.1811 57.8838 72.2521C58.1952 71.8161 58.52 71.3861 58.8594 70.9646L58.8093 70.9297C61.6395 68.356 59.6416 65.2958 54.877 64.2145C56.4978 63.3107 57.7919 62.1996 58.5812 60.8149C60.0582 58.2215 57.7613 56.5041 54.4728 55.5461C55.3784 53.6103 55.9667 51.4762 56.8727 49.3507C60.1958 41.5605 69.3195 35.0967 73.6808 27.5185C77.5123 20.8597 75.5917 13.4857 67.1832 8.39879C59.2738 3.61414 46.3341 1.21755 35.2587 2.12026C24.3106 3.01406 15.3387 9.26846 14.0174 15.6053C13.2081 19.482 13.2046 24.1207 15.8706 27.7843C19.5797 32.8787 24.8342 37.5504 28.8791 42.5505C32.4738 46.9946 33.7129 52.0745 29.7443 56.5676C29.4523 56.8981 30.2456 57.1729 30.585 56.8602C38.7287 49.3529 29.2638 41.0699 23.307 34.3414C20.9596 31.6867 18.294 29.0584 16.687 26.2095C15.1377 23.4594 15.3094 20.3825 15.4416 17.5217C15.6892 12.2157 20.7843 7.44557 28.3835 4.77642C41.9817 -0.00303185 62.8028 5.22982 70.3111 12.7308C78.7821 21.192 69.4508 30.8014 62.5401 38.2716C59.6172 41.4331 56.8753 44.6351 54.952 48.0603C53.7936 50.1253 53.5668 52.7403 52.6107 55.0979C51.8818 54.9571 51.1315 54.8494 50.3839 54.7685C50.7832 48.3177 51.3658 44.4257 53.3539 39.5263C54.0682 37.7658 54.9742 36.0536 55.8504 34.3971C56.744 32.7075 57.6682 30.9604 58.4122 29.1293L58.461 29.0082C59.2397 27.1285 59.7876 25.2893 58.5409 24.5641C57.8802 24.1813 57.3225 24.2214 56.9707 24.322C55.9436 24.6154 55.5403 25.6822 55.1139 26.8118C54.9471 27.2541 54.6822 27.9544 54.4604 28.2262C54.3402 27.8775 54.3038 27.1453 54.2789 26.6751C54.2177 25.4535 54.1529 24.1905 53.2558 23.5771C52.9763 23.3862 52.4932 23.179 51.7824 23.2737C49.9709 23.5158 49.761 25.3346 49.5933 26.7955C49.5489 27.1716 49.4549 27.9926 49.2956 28.452C49.2317 27.97 49.2428 27.2374 49.2499 26.7398C49.2672 25.5478 49.2819 24.517 48.8284 23.931C48.1949 23.1144 47.5342 23.0264 47.0906 23.097C45.9126 23.2849 45.4871 24.6573 45.1206 26.1705L45.1025 26.2444C44.7715 27.6221 44.5053 28.2767 44.3118 28.5753C43.9698 28.0602 43.8988 26.781 43.8655 26.2043L43.8593 26.0884C43.771 24.5485 43.5984 23.1382 42.467 22.8036C42.0416 22.6774 41.3725 22.6807 40.6005 23.4078C40.0437 23.9302 39.8733 24.9507 39.675 26.1326C39.5929 26.625 39.4714 27.3491 39.3205 27.8192C39.246 27.3432 39.301 26.5192 39.3254 26.1438C39.4234 24.6781 39.545 22.853 37.7983 22.384C37.1106 22.1995 36.5972 22.345 36.2858 22.4991C35.288 22.9915 34.9978 24.2318 34.7143 25.4319C34.6065 25.8935 34.4375 26.6128 34.256 26.9421C34.0856 26.6454 33.9507 25.9184 33.8651 25.4605C33.6468 24.2901 33.441 23.1853 32.4786 22.7646C32.1503 22.6213 31.605 22.5114 30.8827 22.807C29.5198 23.3647 29.7296 25.2526 30.16 27.2088L30.1866 27.335C30.5926 29.2388 31.1907 31.0825 31.7692 32.8664C32.3367 34.6143 32.9223 36.4219 33.3123 38.2511C33.4813 39.0555 33.6615 39.8512 33.8416 40.6485C34.8505 45.1038 35.8923 49.712 35.1424 55.7113L35.89 55.7767C33.5931 56.3422 31.6419 57.1332 30.558 58.2048C26.3027 62.4202 37.4762 63.1558 41.7132 62.7845C48.9598 62.1514 52.0189 59.8298 53.8047 56.8201C54.6809 57.1228 55.4325 57.5279 55.9778 58.0674C58.3984 60.4599 55.5696 62.4202 51.6293 63.8309C47.544 63.6412 43.5123 63.995 39.4283 64.0597C35.3505 64.1243 29.6915 63.8473 26.2362 65.3983C24.9677 65.9665 24.556 67.2153 25.9482 67.8306C28.6928 69.04 33.484 68.3991 36.5626 68.1577C41.7416 67.7526 47.6886 67.095 52.2261 65.4147C56.1947 65.8198 59.2126 66.9628 56.8948 69.8373C56.7879 69.9706 56.6535 70.0946 56.5257 70.2197C51.6094 69.0831 44.7972 69.3508 40.4985 69.5725C36.8462 69.7593 27.809 70.4117 25.9544 72.6839C24.7507 74.1581 30.3046 75.343 31.9285 75.6219C39.9505 77.0029 50.8533 75.388 57.0248 72.1455C57.0994 72.1065 57.1557 72.0634 57.228 72.0233Z" fill="black"/>
</svg>
