<svg width="65" height="60" viewBox="0 0 65 60" fill="none" xmlns="http://www.w3.org/2000/svg">
<path d="M32.1565 0.84257C28.8181 1.95522 26.1952 2.62295 23.5722 3.51314C11.1731 7.74163 4.25831 16.1986 3.54289 28.4388C3.06582 39.1211 8.31177 47.3556 18.3266 52.9192C34.5408 61.8212 55.2855 53.587 60.0544 36.4505C62.9157 25.9907 58.8623 15.0856 49.3245 8.40936C47.417 7.07391 45.271 5.96125 43.8402 4.40333C43.6018 3.95841 43.1248 3.73561 42.8864 3.29068C42.6481 2.84542 42.8864 2.17803 43.3635 2.17803C45.7478 1.95522 47.6553 2.40049 49.8012 3.51314C53.1396 5.29353 56.0009 7.9641 58.3856 10.8571C73.1689 29.5515 61.2469 55.5898 37.1638 59.1506C21.4263 61.3762 4.49667 52.6968 0.681564 34.8926C-2.18013 21.317 6.16587 7.29671 19.9958 2.17803C23.5722 0.620107 27.3873 0.174843 32.1565 0.84257ZM33.587 41.5692C33.3487 41.5692 32.3949 41.5692 31.4411 41.3468C25.9568 41.1243 21.903 38.6762 18.8033 34.4477C15.2266 29.5515 13.5574 24.2103 13.5574 18.4239C13.5574 16.6435 14.2728 15.3084 15.2266 15.5309C16.6574 15.7534 17.1341 16.8663 17.6112 18.2015C17.8495 19.5369 18.0879 20.872 18.565 22.2072C19.2804 24.8781 20.2342 27.5486 21.4263 29.9967C23.3338 34.0024 26.9106 36.4505 31.4411 37.5632C38.1175 39.1211 45.5094 36.673 49.3245 31.3319C50.0399 30.2192 50.5166 29.329 50.9937 27.9936C51.4704 26.8809 51.9475 25.7683 53.6167 25.5455C54.5705 25.5455 55.0472 27.3262 54.3317 29.1066C50.9937 36.0053 45.271 40.9015 36.4483 41.3468C35.4946 41.5692 35.0175 41.5692 33.587 41.5692ZM44.0786 12.4151C43.6018 15.0856 42.8864 18.4239 42.171 21.9847C42.171 22.43 41.6943 22.8749 41.4559 23.3201C40.9789 23.9879 40.2635 24.2103 39.3097 23.9879C38.5943 23.7651 37.8792 23.3201 37.6405 22.6524C37.6405 22.2072 37.4021 21.9847 37.4021 21.5398C37.6405 17.3113 39.548 13.3052 41.9327 9.74448C42.171 9.52202 42.6481 9.29955 42.8864 9.29955C43.3635 9.29955 43.6018 9.52202 43.6018 9.96694C43.6018 10.1897 43.8402 10.4122 43.8402 10.6347C44.0786 10.8571 44.0786 11.0799 44.0786 12.4151ZM32.8716 15.9762C32.8716 17.3113 32.8716 18.6467 32.6332 19.9818C32.6332 20.6496 32.1565 21.317 31.4411 21.7622C30.4873 22.2072 29.2948 21.9847 28.5798 21.0945C28.1027 20.4268 27.8644 19.5369 27.8644 18.6467C27.8644 16.6435 28.1027 14.6407 28.5798 12.6379C28.8181 11.9701 29.0565 11.3024 29.5336 10.6347C30.0103 10.1897 30.4873 9.96694 31.2028 9.96694C31.6795 10.1897 32.1565 10.4122 32.1565 10.8571C32.3949 11.5249 32.3949 11.9701 32.6332 12.6379C32.8716 13.7505 32.8716 14.8632 32.8716 15.9762Z" fill="black"/>
</svg>
